ffmpeg started on 2025-06-04 at 20:08:41
Report written to "D:\Convert\FFMetrics\reports\psnr_report-6.txt"
Log level: 32
Command line:
ffmpeg -hide_banner -nostdin -i "G:\\\xc0\xed\xe8\xec\xe5\\\xce\xed\xe3\xee\xe8\xed\xe3\xe8\\!_36_\xce\xf1\xe5\xed\xfc_2024\\DreamCast\\\xc3\xf0\xe8\xe1\xed\xee\xe9 \xf9\xe5\xed\xee\xea\\[DC] Kinoko Inu - 05_Telegram_HEVC.mkv" -i "G:\\\xc0\xed\xe8\xec\xe5\\\xce\xed\xe3\xee\xe8\xed\xe3\xe8\\!_36_\xce\xf1\xe5\xed\xfc_2024\\DreamCast\\\xc3\xf0\xe8\xe1\xed\xee\xe9 \xf9\xe5\xed\xee\xea\\[DC] Kinoko Inu - 05_Telegram.mp4" -lavfi "[0:v]settb=AVTB,setpts=PTS-STARTPTS,format=pix_fmts=yuv420p10,fps=24000/1001,scale=1920:1080:flags=bicubic[main];[1:v]settb=AVTB,setpts=PTS-STARTPTS,format=pix_fmts=yuv420p,fps=24000/1001,scale=1920:1080:flags=bicubic[ref];[main][ref]psnr=eof_action=endall:stats_file='D\\:/Convert/FFMetrics/logs/psnr_logfile-6.txt'" -f null -
Input #0, matroska,webm, from 'G:\Аниме\Онгоинги\!_36_Осень_2024\DreamCast\Грибной щенок\[DC] Kinoko Inu - 05_Telegram_HEVC.mkv':
  Metadata:
    COMPATIBLE_BRANDS: isomiso2avc1mp41
    MAJOR_BRAND     : isom
    MINOR_VERSION   : 512
    ENCODER         : Lavf61.7.100
  Duration: 00:23:51.68, start: -0.021000, bitrate: 718 kb/s
  Stream #0:0: Video: hevc (Main 10), yuv420p10le(tv, bt709, progressive), 1920x1080 [SAR 1:1 DAR 16:9], 23.98 fps, 23.98 tbr, 1k tbn (default)
      Metadata:
        HANDLER_NAME    : VideoHandler
        VENDOR_ID       : [0][0][0][0]
        ENCODER         : Lavc61.19.100 libx265
        BPS             : 521815
        DURATION        : 00:23:51.554708333
        NUMBER_OF_FRAMES: 34323
        NUMBER_OF_BYTES : 93375841
        _STATISTICS_WRITING_APP: mkvpropedit v66.0.0 ('Josie') 64-bit
        _STATISTICS_WRITING_DATE_UTC: 2025-05-30 10:14:04
        _STATISTICS_TAGS: BPS DURATION NUMBER_OF_FRAMES NUMBER_OF_BYTES
  Stream #0:1: Audio: aac (LC), 48000 Hz, stereo, fltp (default)
      Metadata:
        HANDLER_NAME    : SoundHandler
        VENDOR_ID       : [0][0][0][0]
        ENCODER         : Lavc61.19.100 aac
        BPS             : 192951
        DURATION        : 00:23:51.680000000
        NUMBER_OF_FRAMES: 67111
        NUMBER_OF_BYTES : 34530569
        _STATISTICS_WRITING_APP: mkvpropedit v66.0.0 ('Josie') 64-bit
        _STATISTICS_WRITING_DATE_UTC: 2025-05-30 10:14:04
        _STATISTICS_TAGS: BPS DURATION NUMBER_OF_FRAMES NUMBER_OF_BYTES
Input #1, mov,mp4,m4a,3gp,3g2,mj2, from 'G:\Аниме\Онгоинги\!_36_Осень_2024\DreamCast\Грибной щенок\[DC] Kinoko Inu - 05_Telegram.mp4':
  Metadata:
    major_brand     : isom
    minor_version   : 512
    compatible_brands: isomiso2avc1mp41
    encoder         : Lavf61.1.100
  Duration: 00:23:51.62, start: 0.000000, bitrate: 3749 kb/s
  Stream #1:0[0x1](und): Video: h264 (High) (avc1 / 0x31637661), yuv420p(tv, bt709, progressive), 1920x1080 [SAR 1:1 DAR 16:9], 3601 kb/s, 23.98 fps, 23.98 tbr, 24k tbn (default)
      Metadata:
        handler_name    : VideoHandler
        vendor_id       : [0][0][0][0]
        encoder         : Lavc61.3.100 h264_qsv
  Stream #1:1[0x2](und): Audio: aac (HE-AACv2) (mp4a / 0x6134706D), 48000 Hz, stereo, fltp, 144 kb/s (default)
      Metadata:
        handler_name    : SoundHandler
        vendor_id       : [0][0][0][0]
Stream mapping:
  Stream #0:0 (hevc) -> settb:default
  Stream #1:0 (h264) -> settb:default
  psnr:default -> Stream #0:0 (wrapped_avframe)
  Stream #0:1 -> #0:1 (aac (native) -> pcm_s16le (native))
Output #0, null, to 'pipe:':
  Metadata:
    COMPATIBLE_BRANDS: isomiso2avc1mp41
    MAJOR_BRAND     : isom
    MINOR_VERSION   : 512
    encoder         : Lavf61.7.100
  Stream #0:0: Video: wrapped_avframe, yuv420p10le(tv, bt709, progressive), 1920x1080 [SAR 1:1 DAR 16:9], q=2-31, 200 kb/s, 23.98 fps, 23.98 tbn
      Metadata:
        encoder         : Lavc61.19.100 wrapped_avframe
  Stream #0:1: Audio: pcm_s16le, 48000 Hz, stereo, s16, 1536 kb/s (default)
      Metadata:
        HANDLER_NAME    : SoundHandler
        VENDOR_ID       : [0][0][0][0]
        _STATISTICS_TAGS: BPS DURATION NUMBER_OF_FRAMES NUMBER_OF_BYTES
        BPS             : 192951
        DURATION        : 00:23:51.680000000
        NUMBER_OF_FRAMES: 67111
        NUMBER_OF_BYTES : 34530569
        _STATISTICS_WRITING_APP: mkvpropedit v66.0.0 ('Josie') 64-bit
        _STATISTICS_WRITING_DATE_UTC: 2025-05-30 10:14:04
        encoder         : Lavc61.19.100 pcm_s16le
frame=  174 fps=0.0 q=-0.0 size=N/A time=00:00:07.25 bitrate=N/A speed=14.1x    frame=  402 fps=394 q=-0.0 size=N/A time=00:00:16.76 bitrate=N/A speed=16.4x    frame=  675 fps=437 q=-0.0 size=N/A time=00:00:28.15 bitrate=N/A speed=18.2x    frame=  933 fps=454 q=-0.0 size=N/A time=00:00:38.91 bitrate=N/A speed=  19x    frame= 1179 fps=460 q=-0.0 size=N/A time=00:00:49.17 bitrate=N/A speed=19.2x    frame= 1437 fps=466 q=-0.0 size=N/A time=00:00:59.93 bitrate=N/A speed=19.4x    frame= 1703 fps=472 q=-0.0 size=N/A time=00:01:11.02 bitrate=N/A speed=19.7x    frame= 1954 fps=474 q=-0.0 size=N/A time=00:01:21.49 bitrate=N/A speed=19.8x    frame= 2183 fps=472 q=-0.0 size=N/A time=00:01:31.04 bitrate=N/A speed=19.7x    frame= 2421 fps=470 q=-0.0 size=N/A time=00:01:40.97 bitrate=N/A speed=19.6x    frame= 2636 fps=465 q=-0.0 size=N/A time=00:01:49.94 bitrate=N/A speed=19.4x    frame= 2823 fps=457 q=-0.0 size=N/A time=00:01:57.74 bitrate=N/A speed=19.1x    frame= 3022 fps=451 q=-0.0 size=N/A time=00:02:06.04 bitrate=N/A speed=18.8x    frame= 3253 fps=451 q=-0.0 size=N/A time=00:02:15.67 bitrate=N/A speed=18.8x    frame= 3454 fps=447 q=-0.0 size=N/A time=00:02:24.06 bitrate=N/A speed=18.6x    frame= 3676 fps=446 q=-0.0 size=N/A time=00:02:33.31 bitrate=N/A speed=18.6x    frame= 3882 fps=443 q=-0.0 size=N/A time=00:02:41.91 bitrate=N/A speed=18.5x    frame= 4089 fps=441 q=-0.0 size=N/A time=00:02:50.54 bitrate=N/A speed=18.4x    frame= 4339 fps=443 q=-0.0 size=N/A time=00:03:00.97 bitrate=N/A speed=18.5x    frame= 4582 fps=445 q=-0.0 size=N/A time=00:03:11.10 bitrate=N/A speed=18.5x    frame= 4841 fps=447 q=-0.0 size=N/A time=00:03:21.95 bitrate=N/A speed=18.7x    frame= 5112 fps=451 q=-0.0 size=N/A time=00:03:33.21 bitrate=N/A speed=18.8x    frame= 5322 fps=449 q=-0.0 size=N/A time=00:03:41.97 bitrate=N/A speed=18.7x    frame= 5563 fps=450 q=-0.0 size=N/A time=00:03:52.02 bitrate=N/A speed=18.8x    frame= 5790 fps=450 q=-0.0 size=N/A time=00:04:01.49 bitrate=N/A speed=18.8x    frame= 6035 fps=450 q=-0.0 size=N/A time=00:04:11.70 bitrate=N/A speed=18.8x    frame= 6177 fps=444 q=-0.0 size=N/A time=00:04:17.63 bitrate=N/A speed=18.5x    frame= 6390 fps=443 q=-0.0 size=N/A time=00:04:26.51 bitrate=N/A speed=18.5x    frame= 6619 fps=443 q=-0.0 size=N/A time=00:04:36.06 bitrate=N/A speed=18.5x    frame= 6874 fps=445 q=-0.0 size=N/A time=00:04:46.70 bitrate=N/A speed=18.5x    frame= 7096 fps=444 q=-0.0 size=N/A time=00:04:55.96 bitrate=N/A speed=18.5x    frame= 7348 fps=445 q=-0.0 size=N/A time=00:05:06.47 bitrate=N/A speed=18.6x    frame= 7592 fps=446 q=-0.0 size=N/A time=00:05:16.64 bitrate=N/A speed=18.6x    frame= 7842 fps=448 q=-0.0 size=N/A time=00:05:27.07 bitrate=N/A speed=18.7x    frame= 8113 fps=450 q=-0.0 size=N/A time=00:05:38.37 bitrate=N/A speed=18.8x    frame= 8360 fps=451 q=-0.0 size=N/A time=00:05:48.68 bitrate=N/A speed=18.8x    frame= 8613 fps=452 q=-0.0 size=N/A time=00:05:59.27 bitrate=N/A speed=18.8x    frame= 8887 fps=454 q=-0.0 size=N/A time=00:06:10.66 bitrate=N/A speed=18.9x    frame= 9143 fps=455 q=-0.0 size=N/A time=00:06:21.33 bitrate=N/A speed=  19x    frame= 9386 fps=455 q=-0.0 size=N/A time=00:06:31.47 bitrate=N/A speed=  19x    frame= 9660 fps=457 q=-0.0 size=N/A time=00:06:42.90 bitrate=N/A speed=19.1x    frame= 9933 fps=458 q=-0.0 size=N/A time=00:06:54.28 bitrate=N/A speed=19.1x    frame=10186 fps=459 q=-0.0 size=N/A time=00:07:04.84 bitrate=N/A speed=19.2x    frame=10440 fps=460 q=-0.0 size=N/A time=00:07:15.43 bitrate=N/A speed=19.2x    frame=10684 fps=460 q=-0.0 size=N/A time=00:07:25.61 bitrate=N/A speed=19.2x    frame=10938 fps=461 q=-0.0 size=N/A time=00:07:36.20 bitrate=N/A speed=19.2x    frame=11182 fps=461 q=-0.0 size=N/A time=00:07:46.38 bitrate=N/A speed=19.2x    frame=11402 fps=461 q=-0.0 size=N/A time=00:07:55.55 bitrate=N/A speed=19.2x    frame=11643 fps=461 q=-0.0 size=N/A time=00:08:05.61 bitrate=N/A speed=19.2x    frame=11849 fps=460 q=-0.0 size=N/A time=00:08:14.20 bitrate=N/A speed=19.2x    frame=12096 fps=460 q=-0.0 size=N/A time=00:08:24.50 bitrate=N/A speed=19.2x    frame=12342 fps=460 q=-0.0 size=N/A time=00:08:34.76 bitrate=N/A speed=19.2x    frame=12589 fps=460 q=-0.0 size=N/A time=00:08:45.06 bitrate=N/A speed=19.2x    frame=12848 fps=461 q=-0.0 size=N/A time=00:08:55.86 bitrate=N/A speed=19.2x    frame=13104 fps=462 q=-0.0 size=N/A time=00:09:06.54 bitrate=N/A speed=19.3x    frame=13354 fps=462 q=-0.0 size=N/A time=00:09:16.97 bitrate=N/A speed=19.3x    frame=13586 fps=462 q=-0.0 size=N/A time=00:09:26.64 bitrate=N/A speed=19.3x    frame=13828 fps=462 q=-0.0 size=N/A time=00:09:36.74 bitrate=N/A speed=19.3x    frame=14065 fps=462 q=-0.0 size=N/A time=00:09:46.62 bitrate=N/A speed=19.3x    frame=14320 fps=463 q=-0.0 size=N/A time=00:09:57.26 bitrate=N/A speed=19.3x    frame=14557 fps=463 q=-0.0 size=N/A time=00:10:07.14 bitrate=N/A speed=19.3x    frame=14807 fps=463 q=-0.0 size=N/A time=00:10:17.57 bitrate=N/A speed=19.3x    frame=15076 fps=464 q=-0.0 size=N/A time=00:10:28.79 bitrate=N/A speed=19.3x    frame=15337 fps=464 q=-0.0 size=N/A time=00:10:39.68 bitrate=N/A speed=19.4x    frame=15600 fps=465 q=-0.0 size=N/A time=00:10:50.65 bitrate=N/A speed=19.4x    frame=15863 fps=466 q=-0.0 size=N/A time=00:11:01.61 bitrate=N/A speed=19.4x    frame=16119 fps=466 q=-0.0 size=N/A time=00:11:12.29 bitrate=N/A speed=19.4x    frame=16376 fps=467 q=-0.0 size=N/A time=00:11:23.01 bitrate=N/A speed=19.5x    frame=16627 fps=467 q=-0.0 size=N/A time=00:11:33.48 bitrate=N/A speed=19.5x    frame=16893 fps=468 q=-0.0 size=N/A time=00:11:44.57 bitrate=N/A speed=19.5x    frame=17141 fps=468 q=-0.0 size=N/A time=00:11:54.92 bitrate=N/A speed=19.5x    frame=17382 fps=468 q=-0.0 size=N/A time=00:12:04.97 bitrate=N/A speed=19.5x    frame=17651 fps=469 q=-0.0 size=N/A time=00:12:16.19 bitrate=N/A speed=19.5x    frame=17915 fps=469 q=-0.0 size=N/A time=00:12:27.20 bitrate=N/A speed=19.6x    frame=18160 fps=469 q=-0.0 size=N/A time=00:12:37.42 bitrate=N/A speed=19.6x    frame=18395 fps=469 q=-0.0 size=N/A time=00:12:47.22 bitrate=N/A speed=19.6x    frame=18649 fps=469 q=-0.0 size=N/A time=00:12:57.81 bitrate=N/A speed=19.6x    frame=18900 fps=470 q=-0.0 size=N/A time=00:13:08.28 bitrate=N/A speed=19.6x    frame=19150 fps=470 q=-0.0 size=N/A time=00:13:18.71 bitrate=N/A speed=19.6x    frame=19417 fps=471 q=-0.0 size=N/A time=00:13:29.85 bitrate=N/A speed=19.6x    frame=19704 fps=471 q=-0.0 size=N/A time=00:13:41.82 bitrate=N/A speed=19.7x    frame=19966 fps=472 q=-0.0 size=N/A time=00:13:52.74 bitrate=N/A speed=19.7x    frame=20241 fps=473 q=-0.0 size=N/A time=00:14:04.21 bitrate=N/A speed=19.7x    frame=20514 fps=473 q=-0.0 size=N/A time=00:14:15.60 bitrate=N/A speed=19.7x    frame=20777 fps=474 q=-0.0 size=N/A time=00:14:26.57 bitrate=N/A speed=19.8x    frame=21059 fps=474 q=-0.0 size=N/A time=00:14:38.33 bitrate=N/A speed=19.8x    frame=21333 fps=475 q=-0.0 size=N/A time=00:14:49.76 bitrate=N/A speed=19.8x    frame=21616 fps=476 q=-0.0 size=N/A time=00:15:01.56 bitrate=N/A speed=19.8x    frame=21866 fps=476 q=-0.0 size=N/A time=00:15:11.99 bitrate=N/A speed=19.9x    frame=22078 fps=475 q=-0.0 size=N/A time=00:15:20.83 bitrate=N/A speed=19.8x    frame=22337 fps=476 q=-0.0 size=N/A time=00:15:31.63 bitrate=N/A speed=19.8x    frame=22600 fps=476 q=-0.0 size=N/A time=00:15:42.60 bitrate=N/A speed=19.9x    frame=22839 fps=476 q=-0.0 size=N/A time=00:15:52.57 bitrate=N/A speed=19.9x    frame=23052 fps=475 q=-0.0 size=N/A time=00:16:01.46 bitrate=N/A speed=19.8x    frame=23322 fps=476 q=-0.0 size=N/A time=00:16:12.72 bitrate=N/A speed=19.8x    frame=23593 fps=476 q=-0.0 size=N/A time=00:16:24.02 bitrate=N/A speed=19.9x    frame=23869 fps=477 q=-0.0 size=N/A time=00:16:35.53 bitrate=N/A speed=19.9x    frame=24124 fps=477 q=-0.0 size=N/A time=00:16:46.17 bitrate=N/A speed=19.9x    frame=24400 fps=478 q=-0.0 size=N/A time=00:16:57.68 bitrate=N/A speed=19.9x    frame=24668 fps=478 q=-0.0 size=N/A time=00:17:08.86 bitrate=N/A speed=19.9x    frame=24940 fps=479 q=-0.0 size=N/A time=00:17:20.20 bitrate=N/A speed=  20x    frame=25204 fps=479 q=-0.0 size=N/A time=00:17:31.21 bitrate=N/A speed=  20x    frame=25453 fps=479 q=-0.0 size=N/A time=00:17:41.60 bitrate=N/A speed=  20x    frame=25675 fps=478 q=-0.0 size=N/A time=00:17:50.86 bitrate=N/A speed=  20x    frame=25919 fps=478 q=-0.0 size=N/A time=00:18:01.03 bitrate=N/A speed=  20x    frame=26148 fps=478 q=-0.0 size=N/A time=00:18:10.58 bitrate=N/A speed=19.9x    frame=26413 fps=478 q=-0.0 size=N/A time=00:18:21.64 bitrate=N/A speed=  20x    frame=26650 fps=478 q=-0.0 size=N/A time=00:18:31.52 bitrate=N/A speed=19.9x    frame=26908 fps=478 q=-0.0 size=N/A time=00:18:42.28 bitrate=N/A speed=  20x    frame=27159 fps=479 q=-0.0 size=N/A time=00:18:52.75 bitrate=N/A speed=  20x    frame=27416 fps=479 q=-0.0 size=N/A time=00:19:03.47 bitrate=N/A speed=  20x    frame=27672 fps=479 q=-0.0 size=N/A time=00:19:14.15 bitrate=N/A speed=  20x    frame=27930 fps=479 q=-0.0 size=N/A time=00:19:24.91 bitrate=N/A speed=  20x    frame=28175 fps=479 q=-0.0 size=N/A time=00:19:35.13 bitrate=N/A speed=  20x    frame=28444 fps=479 q=-0.0 size=N/A time=00:19:46.35 bitrate=N/A speed=  20x    frame=28712 fps=480 q=-0.0 size=N/A time=00:19:57.52 bitrate=N/A speed=  20x    frame=28954 fps=480 q=-0.0 size=N/A time=00:20:07.62 bitrate=N/A speed=  20x    frame=29173 fps=479 q=-0.0 size=N/A time=00:20:16.75 bitrate=N/A speed=  20x    frame=29403 fps=479 q=-0.0 size=N/A time=00:20:26.35 bitrate=N/A speed=  20x    frame=29666 fps=479 q=-0.0 size=N/A time=00:20:37.31 bitrate=N/A speed=  20x    frame=29925 fps=479 q=-0.0 size=N/A time=00:20:48.12 bitrate=N/A speed=  20x    frame=30170 fps=479 q=-0.0 size=N/A time=00:20:58.34 bitrate=N/A speed=  20x    frame=30450 fps=480 q=-0.0 size=N/A time=00:21:10.01 bitrate=N/A speed=  20x    frame=30731 fps=480 q=-0.0 size=N/A time=00:21:21.73 bitrate=N/A speed=  20x    frame=30998 fps=481 q=-0.0 size=N/A time=00:21:32.87 bitrate=N/A speed=  20x    frame=31259 fps=481 q=-0.0 size=N/A time=00:21:43.76 bitrate=N/A speed=20.1x    frame=31499 fps=481 q=-0.0 size=N/A time=00:21:53.77 bitrate=N/A speed=20.1x    frame=31732 fps=481 q=-0.0 size=N/A time=00:22:03.48 bitrate=N/A speed=  20x    frame=31990 fps=481 q=-0.0 size=N/A time=00:22:14.24 bitrate=N/A speed=  20x    frame=32224 fps=480 q=-0.0 size=N/A time=00:22:24.00 bitrate=N/A speed=  20x    frame=32470 fps=480 q=-0.0 size=N/A time=00:22:34.26 bitrate=N/A speed=  20x    frame=32713 fps=480 q=-0.0 size=N/A time=00:22:44.40 bitrate=N/A speed=  20x    frame=32928 fps=480 q=-0.0 size=N/A time=00:22:53.37 bitrate=N/A speed=  20x    frame=33151 fps=480 q=-0.0 size=N/A time=00:23:02.67 bitrate=N/A speed=  20x    frame=33391 fps=479 q=-0.0 size=N/A time=00:23:12.68 bitrate=N/A speed=  20x    frame=33651 fps=480 q=-0.0 size=N/A time=00:23:23.52 bitrate=N/A speed=  20x    frame=33920 fps=480 q=-0.0 size=N/A time=00:23:34.74 bitrate=N/A speed=  20x    frame=34168 fps=480 q=-0.0 size=N/A time=00:23:45.09 bitrate=N/A speed=  20x    [Parsed_psnr_10 @ 000002ad5b43a740] PSNR y:49.402474 u:51.135846 v:51.203262 average:49.915508 min:41.635584 max:inf
[out#0/null @ 000002ad5aabffc0] video:14748KiB audio:268444KiB subtitle:0KiB other streams:0KiB global headers:0KiB muxing overhead: unknown
frame=34323 fps=480 q=-0.0 Lsize=N/A time=00:23:51.55 bitrate=N/A speed=  20x    
